0
SECTION
2
HEADER
9
$INSUNITS
70
1
9
$ACADVER
1
AC1014
9
$HANDSEED
5
FFFF
0
ENDSEC
0
SECTION
2
TABLES
0
TABLE
2
VPORT
5
8
100
AcDbSymbolTable
0
ENDTAB
0
TABLE
2
LTYPE
5
5
100
AcDbSymbolTable
0
LTYPE
5
14
100
AcDbSymbolTableRecord
100
AcDbLinetypeTableRecord
2
BYBLOCK
70
0
0
LTYPE
5
15
100
AcDbSymbolTableRecord
100
AcDbLinetypeTableRecord
2
BYLAYER
70
0
0
ENDTAB
0
TABLE
2
LAYER
5
2
100
AcDbSymbolTable
70
2
0
LAYER
5
50
100
AcDbSymbolTableRecord
100
AcDbLayerTableRecord
2
0
70
0
6
CONTINUOUS
0
ENDTAB
0
TABLE
2
STYLE
5
3
100
AcDbSymbolTable
70
1
0
STYLE
5
11
100
AcDbSymbolTableRecord
100
AcDbTextStyleTableRecord
2
STANDARD
70
0
0
ENDTAB
0
TABLE
2
VIEW
5
6
100
AcDbSymbolTable
70
0
0
ENDTAB
0
TABLE
2
UCS
5
7
100
AcDbSymbolTable
70
0
0
ENDTAB
0
TABLE
2
APPID
5
9
100
AcDbSymbolTable
70
2
0
APPID
5
12
100
AcDbSymbolTableRecord
100
AcDbRegAppTableRecord
2
ACAD
70
0
0
ENDTAB
0
TABLE
2
DIMSTYLE
5
A
100
AcDbSymbolTable
70
1
0
ENDTAB
0
TABLE
2
BLOCK_RECORD
5
1
100
AcDbSymbolTable
70
1
0
BLOCK_RECORD
5
1F
100
AcDbSymbolTableRecord
100
AcDbBlockTableRecord
2
*MODEL_SPACE
0
BLOCK_RECORD
5
1B
100
AcDbSymbolTableRecord
100
AcDbBlockTableRecord
2
*PAPER_SPACE
0
ENDTAB
0
ENDSEC
0
SECTION
2
BLOCKS
0
BLOCK
5
20
100
AcDbEntity
100
AcDbBlockBegin
2
*MODEL_SPACE
0
ENDBLK
5
21
100
AcDbEntity
100
AcDbBlockEnd
0
BLOCK
5
1C
100
AcDbEntity
100
AcDbBlockBegin
2
*PAPER_SPACE
0
ENDBLK
5
1D
100
AcDbEntity
100
AcDbBlockEnd
0
ENDSEC
0
SECTION
2
ENTITIES
0
LWPOLYLINE
5
100
100
AcDbEntity
8
0
100
AcDbPolyline
90
4
70
1
43
0.0
10
9.9999999999999982
20
0
10
0
20
0
10
0
20
0.82999999999999974
10
9.9999999999999982
20
0.82999999999999974
0
LINE
5
101
100
AcDbEntity
8
0
100
AcDbLine
10
0.39999999999999997
20
-0.099999999999999992
30
0
11
9.5999999999999996
21
-0.099999999999999992
31
0
0
LINE
5
102
100
AcDbEntity
8
0
100
AcDbLine
10
0
20
-0.19999999999999998
30
0
11
4.7999999999999989
21
-0.20000000000000026
31
0
0
LINE
5
103
100
AcDbEntity
8
0
100
AcDbLine
10
9.9999999999999982
20
-0.19999999999999998
30
0
11
5.1999999999999993
21
-0.1999999999999984
31
0
0
LINE
5
104
100
AcDbEntity
8
0
100
AcDbLine
10
0
20
0
30
0
11
9.9999999999999982
21
0
31
0
0
LINE
5
105
100
AcDbEntity
8
0
100
AcDbLine
10
9.9999999999999982
20
0
30
0
11
9.9999999999999982
21
-0.8999999999999998
31
0
0
LINE
5
106
100
AcDbEntity
8
0
100
AcDbLine
10
2.2043642384652336e-16
20
-0.8999999999999998
30
0
11
0
21
0
31
0
0
LINE
5
107
100
AcDbEntity
8
0
100
AcDbLine
10
9.9999999999999982
20
-0.8999999999999998
30
0
11
9.9999999999999982
21
-1.8999999999999997
31
0
0
LINE
5
108
100
AcDbEntity
8
0
100
AcDbLine
10
9.9999999999999982
20
-1.8999999999999997
30
0
11
2.0928689782730254e-16
21
-1.8999999999999997
31
0
0
LINE
5
109
100
AcDbEntity
8
0
100
AcDbLine
10
2.0928689782730254e-16
20
-1.8999999999999997
30
0
11
2.2043642384652336e-16
21
-0.8999999999999998
31
0
0
LINE
5
110
100
AcDbEntity
8
0
100
AcDbLine
10
0.39999999999999997
20
-0.29999999999999999
30
0
11
9.5999999999999996
21
-0.29999999999999999
31
0
0
LINE
5
111
100
AcDbEntity
8
0
100
AcDbLine
10
9.9999999999999982
20
-0.39999999999999997
30
0
11
5.1999999999999993
21
-0.39999999999999841
31
0
0
LINE
5
112
100
AcDbEntity
8
0
100
AcDbLine
10
0
20
-0.39999999999999997
30
0
11
4.7999999999999989
21
-0.40000000000000024
31
0
0
LINE
5
113
100
AcDbEntity
8
0
100
AcDbLine
10
0.39999999999999997
20
-0.49999999999999994
30
0
11
9.5999999999999996
21
-0.49999999999999994
31
0
0
LINE
5
114
100
AcDbEntity
8
0
100
AcDbLine
10
9.9999999999999982
20
-0.59999999999999998
30
0
11
5.1999999999999993
21
-0.59999999999999842
31
0
0
LINE
5
115
100
AcDbEntity
8
0
100
AcDbLine
10
0
20
-0.59999999999999998
30
0
11
4.7999999999999989
21
-0.6000000000000002
31
0
0
LINE
5
116
100
AcDbEntity
8
0
100
AcDbLine
10
0.39999999999999997
20
-0.69999999999999996
30
0
11
9.5999999999999996
21
-0.69999999999999996
31
0
0
LINE
5
117
100
AcDbEntity
8
0
100
AcDbLine
10
9.9999999999999982
20
-0.79999999999999993
30
0
11
5.1999999999999993
21
-0.79999999999999838
31
0
0
LINE
5
118
100
AcDbEntity
8
0
100
AcDbLine
10
0
20
-0.79999999999999993
30
0
11
4.7999999999999989
21
-0.80000000000000027
31
0
0
LINE
5
119
100
AcDbEntity
8
0
100
AcDbLine
10
4.9999999999999991
20
0.82999999999999974
30
0
11
4.9999999999999991
21
2.2172663088014248
31
0
0
LINE
5
120
100
AcDbEntity
8
0
100
AcDbLine
10
0.39999999999999997
20
-0.89999999999999658
30
0
11
9.5999999999999979
21
-0.89999999999999658
31
0
0
LWPOLYLINE
5
121
100
AcDbEntity
8
0
100
AcDbPolyline
90
4
70
1
43
0.0
10
0.37000000000000005
20
0.82999999999999996
10
0.24999999999999997
20
0.82999999999999996
10
0.24999999999999997
20
0.57999999999999985
10
0.37000000000000005
20
0.57999999999999985
0
LINE
5
122
100
AcDbEntity
8
0
100
AcDbLine
10
9.629999999999999
20
0.82999999999999996
30
0
11
9.629999999999999
21
0.57999999999999985
31
0
0
LINE
5
123
100
AcDbEntity
8
0
100
AcDbLine
10
9.629999999999999
20
0.57999999999999985
30
0
11
9.75
21
0.57999999999999985
31
0
0
LINE
5
124
100
AcDbEntity
8
0
100
AcDbLine
10
9.75
20
0.57999999999999985
30
0
11
9.75
21
0.82999999999999996
31
0
0
LWPOLYLINE
5
125
100
AcDbEntity
8
0
100
AcDbPolyline
90
4
70
1
43
0.0
10
0.37000000000000016
20
-1.9000000000000001
10
0.25000000000000022
20
-1.9000000000000001
10
0.25000000000000022
20
-1.6500000000000001
10
0.37000000000000016
20
-1.6500000000000001
0
LINE
5
126
100
AcDbEntity
8
0
100
AcDbLine
10
9.75
20
-1.6500000000000001
30
0
11
9.75
21
-1.9000000000000001
31
0
0
LINE
5
127
100
AcDbEntity
8
0
100
AcDbLine
10
9.629999999999999
20
-1.6500000000000001
30
0
11
9.75
21
-1.6500000000000001
31
0
0
LINE
5
128
100
AcDbEntity
8
0
100
AcDbLine
10
9.629999999999999
20
-1.9000000000000001
30
0
11
9.629999999999999
21
-1.6500000000000001
31
0
0
ENDSEC
0
SECTION
2
OBJECTS
0
DICTIONARY
5
C
100
AcDbDictionary
3
ACAD_GROUP
350
D
3
ACAD_MLINESTYLE
350
17
0
DICTIONARY
5
D
100
AcDbDictionary
0
DICTIONARY
5
1A
330
C
100
AcDbDictionary
0
DICTIONARY
5
17
100
AcDbDictionary
0
ENDSEC
0
EOF
